<?xml version="1.0" encoding="UTF-8" standalone="no"?>
<!DOCTYPE svg PUBLIC "-//W3C//DTD SVG 1.1//EN"
"http://www.w3.org/Graphics/SVG/1.1/DTD/svg11.dtd">
<svg viewBox="0 0 909 1284" version="1.1" xmlns="http://www.w3.org/2000/svg" xmlns:xlink="http://www.w3.org/1999/xlink">
<defs>
<style type="text/css"><![CDATA[
.g1_23{
fill: #F1F1F1;
}
.g2_23{
fill: none;
stroke: #7E7E7E;
stroke-width: 1.6484722;
stroke-linecap: butt;
stroke-linejoin: miter;
}
]]></style>
</defs>
<path fill-rule="evenodd" d="M134.3,155.8l0,96.6l640.6,0l0,-96.6l-640.6,0Z" class="g1_23" />
<path d="M134.3,155.8l0,96.6" class="g2_23" />
<path d="M774.9,155.8l0,96.6" class="g2_23" />
<path d="M133.6,155.8l642.2,0" class="g2_23" />
<path d="M133.6,252.4l642.2,0" class="g2_23" />
<path fill-rule="evenodd" d="M134.3,472.5l0,187.7l640.6,0l0,-187.7l-640.6,0Z" class="g1_23" />
<path d="M134.3,472.5l0,187.7" class="g2_23" />
<path d="M774.9,472.5l0,187.7" class="g2_23" />
<path d="M133.6,472.5l642.2,0" class="g2_23" />
<path d="M133.6,660.2l642.2,0" class="g2_23" />
<path fill-rule="evenodd" d="M134.3,940.8l0,208.4l640.6,0l0,-208.4l-640.6,0Z" class="g1_23" />
<path d="M134.3,940.8l0,208.4" class="g2_23" />
<path d="M774.9,940.8l0,208.4" class="g2_23" />
<path d="M133.6,940.8l642.2,0" class="g2_23" />
<path d="M133.6,1149.2l642.2,0" class="g2_23" />
</svg>