<?xml version="1.0" encoding="UTF-8" standalone="no"?>
<!DOCTYPE svg PUBLIC "-//W3C//DTD SVG 1.1//EN"
"http://www.w3.org/Graphics/SVG/1.1/DTD/svg11.dtd">
<svg viewBox="0 0 909 1284" version="1.1" xmlns="http://www.w3.org/2000/svg" xmlns:xlink="http://www.w3.org/1999/xlink">
<defs>
<style type="text/css"><![CDATA[
.g1_18{
fill: #F1F1F1;
}
.g2_18{
fill: none;
stroke: #7E7E7E;
stroke-width: 1.6484722;
stroke-linecap: butt;
stroke-linejoin: miter;
}
]]></style>
</defs>
<path fill-rule="evenodd" d="M134.3,216.3l0,118.6l640.6,0l0,-118.6l-640.6,0Z" class="g1_18" />
<path d="M134.3,216.3l0,118.6" class="g2_18" />
<path d="M774.9,216.3l0,118.6" class="g2_18" />
<path d="M133.6,216.3l642.2,0" class="g2_18" />
<path d="M133.6,334.9l642.2,0" class="g2_18" />
<path fill-rule="evenodd" d="M134.3,524.9l0,32.6l640.6,0l0,-32.6l-640.6,0Z" class="g1_18" />
<path d="M134.3,524.9l0,32.6" class="g2_18" />
<path d="M774.9,524.9l0,32.6" class="g2_18" />
<path d="M133.6,524.9l642.2,0" class="g2_18" />
<path d="M133.6,557.5l642.2,0" class="g2_18" />
<path fill-rule="evenodd" d="M134.3,747.4l0,114.4l640.6,0l0,-114.4l-640.6,0Z" class="g1_18" />
<path d="M134.3,747.4l0,114.4" class="g2_18" />
<path d="M774.9,747.4l0,114.4" class="g2_18" />
<path d="M133.6,747.4l642.2,0" class="g2_18" />
<path d="M133.6,861.8l642.2,0" class="g2_18" />
</svg>