<?xml version="1.0" encoding="UTF-8" standalone="no"?>
<!DOCTYPE svg PUBLIC "-//W3C//DTD SVG 1.1//EN"
"http://www.w3.org/Graphics/SVG/1.1/DTD/svg11.dtd">
<svg viewBox="0 0 909 1284" version="1.1" xmlns="http://www.w3.org/2000/svg" xmlns:xlink="http://www.w3.org/1999/xlink">
<defs>
<style type="text/css"><![CDATA[
.g1_5{
fill: #F1F1F1;
}
.g2_5{
fill: none;
stroke: #7E7E7E;
stroke-width: 1.6484722;
stroke-linecap: butt;
stroke-linejoin: miter;
}
.g3_5{
fill: none;
stroke: #000000;
stroke-width: 0.55;
stroke-linecap: butt;
stroke-linejoin: miter;
}
]]></style>
</defs>
<path fill-rule="evenodd" d="M134.3,155.8l0,31.2l640.6,0l0,-31.2l-640.6,0Z" class="g1_5" />
<path d="M134.3,155.8l0,31.2" class="g2_5" />
<path d="M774.9,155.8l0,31.2" class="g2_5" />
<path d="M133.6,155.8l642.2,0" class="g2_5" />
<path d="M133.6,187l642.2,0" class="g2_5" />
<path fill-rule="evenodd" d="M134.3,467.5l0,240.9l640.6,0l0,-240.9l-640.6,0Z" class="g1_5" />
<path fill-rule="evenodd" d="M134.3,708.4l0,93.7l640.6,0l0,-93.7l-640.6,0Z" class="g1_5" />
<path fill-rule="evenodd" d="M134.3,802.1l0,118.7l640.6,0l0,-118.7l-640.6,0Z" class="g1_5" />
<path d="M134.3,467.5l0,453.3" class="g2_5" />
<path d="M774.9,467.5l0,453.3" class="g2_5" />
<path d="M133.6,467.5l642.2,0" class="g2_5" />
<path d="M133.6,708.4l642.2,0" class="g3_5" />
<path d="M133.6,802.1l642.2,0" class="g3_5" />
<path d="M133.6,920.8l642.2,0" class="g2_5" />
</svg>